<svg width="64" height="64" viewBox="0 0 26 26" fill="none" xmlns="http://www.w3.org/2000/svg">
<path fill-rule="evenodd" clip-rule="evenodd" d="M13 0C20.1818 0 26 5.81061 26 13C26 20.1818 20.1818 26 13 26C5.81818 26 0 20.1818 0 13C0 5.81061 5.81818 0 13 0Z" fill="#29B188"/>
<path fill-rule="evenodd" clip-rule="evenodd" d="M9.45455 3.81836C16.6364 3.81836 22.4545 9.63654 22.4545 16.8184C22.4545 19.2805 21.7652 21.5911 20.5606 23.5532C18.4318 25.0835 15.8182 25.9926 13 25.9926C5.81818 25.9926 0 20.1744 0 12.9926C0 10.5305 0.689394 8.21987 1.88636 6.25018C4.01515 4.71987 6.62879 3.81836 9.45455 3.81836Z" fill="#1F9A75"/>
<path fill-rule="evenodd" clip-rule="evenodd" d="M22.4545 16.7426V16.7426C22.4244 17.2392 22.3056 17.7256 22.0549 18.1553C21.0266 19.9168 19.4796 21.3366 17.6439 22.2275C17.4773 22.3184 17.3106 22.379 17.1439 22.4547C15.9167 22.9623 14.5833 23.2426 13.1742 23.2426C10.763 23.2426 8.5527 22.4144 6.79999 21.031C6.39826 20.7139 6.07427 20.3086 5.85249 19.8473C5.08263 18.2463 4.63402 16.3108 4.77272 14.5078C4.88577 13.0608 5.37367 11.6513 6.21407 10.3315C6.22265 10.318 6.22354 10.2994 6.23484 10.2881V10.2881C6.23484 10.2881 6.23484 10.2881 6.23484 10.2881C6.23484 10.2881 6.24999 10.2729 6.26514 10.2729C6.27272 10.2729 6.28787 10.2881 6.28787 10.3108V10.3108C6.28787 10.3209 6.28732 10.3306 6.28612 10.3406C6.02893 12.4965 5.73094 16.6792 7.34848 18.7653C7.92424 19.5305 8.3409 20.1062 9.28787 20.5153C10.9167 21.2426 13.2879 20.7956 13.2879 18.4775C13.2879 17.3411 12.3864 16.4244 11.25 16.4244C10.398 16.4244 9.48202 16.9584 9.16456 17.7503C9.14462 17.8001 9.14447 17.8865 9.0909 17.8865V17.8865C9.06817 17.8865 9.05302 17.8638 9.05302 17.8487C9.05302 17.8335 9.05302 17.8335 9.05302 17.8259C9.17424 16.2426 10.5 15.0153 12.2424 14.9926C14.0985 14.9699 15.447 16.6214 15.4242 18.0153C15.4092 19.3471 14.9458 20.2977 13.8411 21.0751C13.826 21.0857 13.803 21.0954 13.803 21.1138V21.1138C13.803 21.1239 13.8097 21.1273 13.8142 21.1328C13.8184 21.1381 13.823 21.1462 13.829 21.1493C13.831 21.1503 13.8335 21.1512 13.8371 21.1515C13.8392 21.1517 13.8409 21.15 13.8409 21.1479V21.1479C13.8409 21.1458 13.8426 21.1441 13.8447 21.1441H13.8539C13.8553 21.1441 13.8568 21.1439 13.8581 21.1434C16.9171 20.0975 17.9242 17.4922 17.8333 15.682C17.5694 10.095 13.4559 5.3784 8.13666 4.15379C8.12375 4.15082 8.11107 4.14776 8.09853 4.14452C8.03757 4.1288 7.99702 4.07362 7.99236 4.01084V4.01084C7.98777 3.94878 8.02287 3.89828 8.08461 3.89054C8.31949 3.86111 8.88331 3.82594 8.96969 3.82594H9.01514C9.19696 3.81836 9.36363 3.81836 9.53787 3.81836C9.62121 3.81836 9.70454 3.81836 9.7803 3.82594C16.7879 3.9926 22.4091 9.7123 22.4545 16.7426ZM11.25 14.0987C11.8333 14.432 12.6061 14.2275 12.9318 13.6138C13.2803 13.0153 13.0606 12.2502 12.4773 11.9017C11.8788 11.5759 11.1136 11.7805 10.7803 12.3865C10.4318 12.9926 10.6515 13.7578 11.25 14.0987Z" fill="#FEFEFE"/>
</svg>
